<?xml version="1.0" encoding="UTF-8"?>
<svg id="Camada_1" data-name="Camada 1" xmlns="http://www.w3.org/2000/svg" width="35mm" height="13.284mm" viewBox="0 0 99.213 37.656">
  <defs>
    <style>
      .cls-1 {
        fill: #764701;
        stroke-width: 0px;
      }
    </style>
  </defs>
  <circle class="cls-1" cx="63.566" cy="5.827" r="5.827"/>
  <circle class="cls-1" cx="36.372" cy="5.827" r="5.827"/>
  <path class="cls-1" d="m70.852,23.082c-1.074,0-1.942.869-1.942,1.942,0,2.052-.613,8.747-8.5,8.747-6.55,0-8.051-5.012-8.395-7.485,1.496-1.101,3.092-3.044,3.782-4.919,1.11-3.021-2.609-3.995-5.827-3.995s-6.946.977-5.827,3.995c.653,1.761,2.313,3.689,3.794,4.827-.32,2.44-1.781,7.577-8.41,7.577-7.887,0-8.5-6.694-8.5-8.747,0-1.074-.87-1.942-1.942-1.942s-1.942.869-1.942,1.942c0,4.691,2.608,12.631,12.385,12.631,5.445,0,8.658-2.554,10.442-5.572,1.784,3.018,4.997,5.572,10.441,5.572,9.777,0,12.385-7.94,12.385-12.631,0-1.074-.869-1.942-1.942-1.942Z"/>
  <g>
    <path class="cls-1" d="m69.391,16.947c-.924,0-1.741-.66-1.91-1.6-.19-1.057.514-2.066,1.571-2.254l27.837-4.981c1.06-.186,2.064.514,2.253,1.57.19,1.057-.514,2.066-1.571,2.254l-27.837,4.981c-.116.021-.23.03-.343.03Z"/>
    <path class="cls-1" d="m97.272,26.664c-.102,0-.207-.008-.313-.025l-27.916-4.521c-1.058-.172-1.777-1.169-1.607-2.228.173-1.058,1.144-1.782,2.229-1.608l27.916,4.521c1.058.173,1.777,1.168,1.607,2.229-.156.954-.979,1.631-1.916,1.631Z"/>
  </g>
  <g>
    <path class="cls-1" d="m29.821,16.947c-.113,0-.229-.009-.344-.03L1.64,11.935c-1.056-.189-1.758-1.198-1.57-2.254.188-1.055,1.195-1.759,2.254-1.57l27.837,4.981c1.056.189,1.758,1.198,1.57,2.254-.168.94-.987,1.6-1.91,1.6Z"/>
    <path class="cls-1" d="m1.94,26.664c-.935,0-1.76-.677-1.915-1.631-.171-1.06.548-2.056,1.608-2.229l27.916-4.521c1.051-.174,2.056.548,2.228,1.608.171,1.058-.548,2.056-1.608,2.228L2.253,26.639c-.104.017-.21.025-.313.025Z"/>
  </g>
</svg>